<?xml version="1.0" encoding="UTF-8"?> <svg xmlns="http://www.w3.org/2000/svg" width="210" height="160" viewBox="0 0 210 160" fill="none"><path d="M139.77 131.122C175.906 131.122 205.199 101.828 205.199 65.6925C205.199 29.5568 175.906 0.263123 139.77 0.263123C103.634 0.263123 74.3408 29.5568 74.3408 65.6925C74.3408 101.828 103.634 131.122 139.77 131.122Z" fill="#F3CE47"></path><path d="M71.5207 41.8162H125.401" stroke="#2D2D2D" stroke-width="1.5" stroke-linecap="round" stroke-linejoin="round"></path><path d="M112.961 30.411H140.529C143.508 30.411 145.932 32.8343 145.932 35.8135V53.199" stroke="#2D2D2D" stroke-width="1.5" stroke-linecap="round" stroke-linejoin="round"></path><path d="M67.9052 30.411L122.521 30.411" stroke="#2D2D2D" stroke-width="1.5" stroke-linecap="round" stroke-linejoin="round"></path><path d="M145.932 108.224V122.786C145.932 125.765 143.508 128.188 140.529 128.188H17.3852C14.4061 128.188 11.9828 125.765 11.9828 122.786L11.9828 57.9558" stroke="#2D2D2D" stroke-width="1.5" stroke-linecap="round" stroke-linejoin="round"></path><path d="M59.148 21.5147H15.0601C13.3606 21.5147 11.9828 22.7417 11.9828 24.2552V48.6076C11.9828 50.1212 13.3606 51.3481 15.0601 51.3481H59.148C60.8476 51.3481 62.2253 50.1212 62.2253 48.6076V24.2552C62.2253 22.7417 60.8476 21.5147 59.148 21.5147Z" fill="#BA5AE2" stroke="#2D2D2D" stroke-width="1.5" stroke-linecap="round" stroke-linejoin="round"></path><path d="M20.4531 28.7729L36.967 40.0063L53.7399 28.7729" stroke="#2D2D2D" stroke-width="1.5" stroke-linecap="round" stroke-linejoin="round"></path><path d="M31.7873 36.506L20.4531 44.0899" stroke="#2D2D2D" stroke-width="1.5" stroke-linecap="round" stroke-linejoin="round"></path><path d="M53.7399 44.0899L42.497 36.4518" stroke="#2D2D2D" stroke-width="1.5" stroke-linecap="round" stroke-linejoin="round"></path><path d="M99.1553 139.416C100.8 146.308 103.957 152.822 108.471 158.424L108.96 159.024H48.955L49.4441 158.424C56.336 149.842 60.0711 139.193 60.0711 128.188H97.8436" stroke="#2D2D2D" stroke-width="1.5" stroke-linecap="round" stroke-linejoin="round"></path><path d="M191.801 77.0476L208.661 79.9762" stroke="#2E2E2E" stroke-width="1.5" stroke-linecap="round"></path><path d="M182.61 62.0366L189.437 46.0224" stroke="#2E2E2E" stroke-width="1.5" stroke-linecap="round"></path><path d="M189.437 68.1627L205.199 59.0833" stroke="#2E2E2E" stroke-width="1.5" stroke-linecap="round"></path><rect x="91.044" y="65.164" width="92.8159" height="29.1527" rx="14.5763" fill="#F3623F" stroke="#2E2E2E" stroke-width="1.5"></rect><path d="M98.5537 99.4056L98.4347 99.06L98.089 98.9409L84.5522 94.2758C84.4947 94.2559 84.4683 94.2286 84.453 94.2055C84.4346 94.1776 84.4214 94.1376 84.422 94.0906C84.4227 94.0437 84.4369 94.004 84.456 93.9766C84.4719 93.9539 84.4989 93.9273 84.557 93.9089L112.012 85.239C112.161 85.1919 112.301 85.3322 112.254 85.4813L103.584 112.936C103.566 112.994 103.539 113.021 103.517 113.037C103.489 113.056 103.45 113.07 103.403 113.071C103.356 113.072 103.316 113.058 103.288 113.04C103.265 113.025 103.237 112.998 103.218 112.941L98.5537 99.4056Z" fill="#FDFAEC" stroke="#2E2E2E" stroke-width="1.5"></path><circle cx="11.7575" cy="11.7575" r="11.0075" transform="matrix(-1 0 0 1 23.7402 9.75726)" fill="#F3623F" stroke="#2E2E2E" stroke-width="1.5"></circle><path d="M25.5889 100.065L63.4234 100.082" stroke="#2E2E2E" stroke-width="1.5" stroke-linecap="round"></path><path d="M25.5889 107.944L63.4238 107.961" stroke="#2E2E2E" stroke-width="1.5" stroke-linecap="round"></path><path d="M25.5889 115.823L41.2684 115.84" stroke="#2E2E2E" stroke-width="1.5" stroke-linecap="round"></path><path fill-rule="evenodd" clip-rule="evenodd" d="M26.1577 62.0366C25.9052 62.0366 25.7004 62.2414 25.7004 62.4939V92.3618C25.7004 92.6144 25.9052 92.8192 26.1577 92.8192H63.0914C63.3439 92.8192 63.5487 92.6144 63.5487 92.3618V62.4939C63.5487 62.2414 63.3439 62.0366 63.0914 62.0366H26.1577ZM38.4306 85.2982C38.4306 85.6424 38.7966 85.8633 39.1011 85.7028L52.7829 78.495C53.1084 78.3235 53.1084 77.8573 52.7829 77.6858L39.1011 70.478C38.7966 70.3176 38.4306 70.5384 38.4306 70.8826V85.2982Z" fill="#65E5C4"></path><path d="M39.1011 85.7028L38.7515 85.0393L39.1011 85.7028ZM52.7829 78.495L52.4333 77.8315L52.7829 78.495ZM52.7829 77.6858L53.1324 77.0222L52.7829 77.6858ZM26.4504 62.4939C26.4504 62.6556 26.3194 62.7866 26.1577 62.7866V61.2866C25.4909 61.2866 24.9504 61.8272 24.9504 62.4939H26.4504ZM26.4504 92.3618V62.4939H24.9504V92.3618H26.4504ZM26.1577 92.0692C26.3194 92.0692 26.4504 92.2002 26.4504 92.3618H24.9504C24.9504 93.0286 25.4909 93.5692 26.1577 93.5692V92.0692ZM63.0914 92.0692H26.1577V93.5692H63.0914V92.0692ZM62.7987 92.3618C62.7987 92.2002 62.9297 92.0692 63.0914 92.0692V93.5692C63.7581 93.5692 64.2987 93.0286 64.2987 92.3618H62.7987ZM62.7987 62.4939V92.3618H64.2987V62.4939H62.7987ZM63.0914 62.7866C62.9297 62.7866 62.7987 62.6556 62.7987 62.4939H64.2987C64.2987 61.8272 63.7581 61.2866 63.0914 61.2866V62.7866ZM26.1577 62.7866H63.0914V61.2866H26.1577V62.7866ZM52.4333 77.8315L38.7515 85.0393L39.4507 86.3664L53.1324 79.1586L52.4333 77.8315ZM38.7515 71.1415L52.4333 78.3493L53.1324 77.0222L39.4507 69.8144L38.7515 71.1415ZM39.1806 85.2982V70.8826H37.6806V85.2982H39.1806ZM39.4507 69.8144C38.6467 69.3909 37.6806 69.9739 37.6806 70.8826H39.1806C39.1806 71.1029 38.9464 71.2442 38.7515 71.1415L39.4507 69.8144ZM38.7515 85.0393C38.9464 84.9366 39.1806 85.0779 39.1806 85.2982H37.6806C37.6806 86.2069 38.6467 86.7899 39.4507 86.3664L38.7515 85.0393ZM53.1324 79.1586C53.9919 78.7058 53.9919 77.475 53.1324 77.0222L52.4333 78.3493C52.2249 78.2396 52.2249 77.9412 52.4333 77.8315L53.1324 79.1586Z" fill="#2E2E2E"></path></svg> 