<?xml version="1.0" encoding="UTF-8"?> <svg xmlns="http://www.w3.org/2000/svg" width="199" height="199" viewBox="0 0 199 199" fill="none"><mask id="mask0_375_400" style="mask-type:alpha" maskUnits="userSpaceOnUse" x="0" y="0" width="199" height="199"><path d="M99.5 199C154.452 199 199 154.452 199 99.5C199 44.5477 154.452 0 99.5 0C44.5477 0 0 44.5477 0 99.5C0 154.452 44.5477 199 99.5 199Z" fill="#AB9546"></path></mask><g mask="url(#mask0_375_400)"><path d="M99.5 172C139.541 172 172 139.541 172 99.5C172 59.4594 139.541 27 99.5 27C59.4594 27 27 59.4594 27 99.5C27 139.541 59.4594 172 99.5 172Z" fill="#F3CE47"></path><path d="M99.5 172C139.541 172 172 139.541 172 99.5C172 59.4594 139.541 27 99.5 27C59.4594 27 27 59.4594 27 99.5C27 139.541 59.4594 172 99.5 172Z" fill="#F3CE47"></path><mask id="mask1_375_400" style="mask-type:alpha" maskUnits="userSpaceOnUse" x="26" y="28" width="146" height="145"><path d="M99.2188 173C59.1781 173 26.7188 140.541 26.7188 100.5C26.7188 60.4594 59.1781 28 99.2188 28C139.259 28 171.719 60.4594 171.719 100.5C171.719 140.541 139.259 173 99.2188 173Z" fill="#F3CE47"></path></mask><g mask="url(#mask1_375_400)"><path d="M82.0219 135.393C75.7612 144 74.2188 158.5 66.7187 168.5L39.2188 152.5L55.3895 119.218L68.4858 109.098L86.3444 91.8349L92.8925 96.5972C92.8925 96.5972 95.2681 102.039 98.3304 99.0024C103.023 94.3489 106.827 99.389 104.41 103.136C103.814 104.06 91.2238 122.742 82.0219 135.393Z" fill="#F8EEFC"></path><path fill-rule="evenodd" clip-rule="evenodd" d="M94.494 90.8418C97.8905 87.2804 92.0126 80.3138 87.5352 85.4634C83.0579 90.613 68.2546 109.763 68.2546 109.763C68.2546 109.763 71.6853 101.765 71.3473 97.6757C71.0093 93.5865 67.2493 92.5435 65.0245 97.6394C61.7963 105.034 60.5913 109.378 57.5833 115.471C54.5753 121.564 50.2188 140.5 54.2188 140.5" fill="#F8EEFC"></path><path fill-rule="evenodd" clip-rule="evenodd" d="M90.183 108.247L102.68 94.1503C104.293 92.3301 104.072 89.5337 102.192 87.9902V87.9902C100.353 86.4804 97.636 86.7563 96.138 88.605L83.9229 103.68" fill="#F8EEFC"></path></g><path d="M44.7192 201.942C67 177 70.9158 151.222 82.1567 135.768C91.3586 123.118 103.949 104.436 104.545 103.512C106.962 99.7647 103.158 94.7246 98.4651 99.3781C95.4029 102.415 90.3188 108.228 90.3188 108.228" stroke="#2E2E2E" stroke-width="1.5"></path><path d="M94.6287 91.2175C98.0252 87.6561 92.1474 80.6894 87.67 85.839C83.1926 90.9886 68.3893 110.139 68.3893 110.139C68.3893 110.139 71.8201 102.141 71.4821 98.0513C71.144 93.9621 67.384 92.9192 65.1593 98.0151C61.9311 105.41 60.7261 109.754 57.7181 115.847C54.7101 121.94 31.1134 171.374 15 183.692" stroke="#2E2E2E" stroke-width="1.5"></path><path d="M90.3178 108.623L102.814 94.526C104.428 92.7058 104.207 89.9094 102.327 88.3659V88.3659C100.487 86.8561 97.7708 87.132 96.2728 88.9807L84.0577 104.056" stroke="#2E2E2E" stroke-width="1.5"></path><mask id="mask2_375_400" style="mask-type:alpha" maskUnits="userSpaceOnUse" x="27" y="27" width="145" height="145"><path d="M99.5 172C139.541 172 172 139.541 172 99.5C172 59.4594 139.541 27 99.5 27C59.4593 27 27 59.4594 27 99.5C27 139.541 59.4593 172 99.5 172Z" fill="#F3CE47"></path></mask><g mask="url(#mask2_375_400)"><path d="M116.697 134.393C122.958 143 124.5 157.5 132 167.5L159.5 151.5L143.329 118.218L130.233 108.098L112.374 90.8349L105.826 95.5972C105.826 95.5972 103.451 101.039 100.388 98.0024C95.696 93.3489 91.8918 98.389 94.3089 102.136C94.9049 103.06 107.495 121.742 116.697 134.393Z" fill="#D7FAF1"></path><path fill-rule="evenodd" clip-rule="evenodd" d="M104.225 89.8418C100.828 86.2804 106.706 79.3138 111.184 84.4634C115.661 89.613 130.464 108.763 130.464 108.763C130.464 108.763 127.033 100.765 127.371 96.6757C127.709 92.5865 131.469 91.5435 133.694 96.6394C136.922 104.034 138.127 108.378 141.135 114.471C144.143 120.564 148.5 139.5 144.5 139.5" fill="#D7FAF1"></path></g><path fill-rule="evenodd" clip-rule="evenodd" d="M108.536 107.247L96.039 93.1503C94.4254 91.3301 94.6469 88.5337 96.527 86.9902V86.9902C98.3661 85.4804 101.083 85.7563 102.581 87.605L114.796 102.68" fill="#D7FAF1"></path><path d="M154 200.942C131 178 127.803 150.222 116.562 134.768C107.36 122.118 94.7702 103.436 94.1741 102.512C91.7571 98.7647 95.5612 93.7246 100.254 98.3781C103.316 101.415 108.4 107.228 108.4 107.228" stroke="#2E2E2E" stroke-width="1.5"></path><path d="M104.09 90.2175C100.694 86.6561 106.571 79.6894 111.049 84.839C115.526 89.9886 130.329 109.139 130.329 109.139C130.329 109.139 126.899 101.141 127.237 97.0513C127.575 92.9621 131.335 91.9192 133.559 97.0151C136.788 104.41 137.993 108.754 141.001 114.847C144.009 120.94 167.605 170.374 183.719 182.692" stroke="#2E2E2E" stroke-width="1.5"></path><path d="M108.401 107.623L95.9043 93.526C94.2907 91.7058 94.5122 88.9094 96.3922 87.3659V87.3659C98.2313 85.8561 100.948 86.132 102.446 87.9807L114.661 103.056" stroke="#2E2E2E" stroke-width="1.5"></path><path d="M117.017 15.8639L126.337 23.7742L126.6 23.9973L126.94 23.943L139.012 22.0173L131.102 31.3369L130.878 31.5998L130.933 31.9404L132.858 44.0118L123.539 36.1015L123.276 35.8784L122.935 35.9327L110.864 37.8584L118.774 28.5388L118.997 28.2759L118.943 27.9353L117.017 15.8639Z" fill="#65E5C4" stroke="black" stroke-width="1.5"></path><path d="M43.304 62.6579C43.6386 62.6013 43.916 62.9159 43.8182 63.2407L36.9962 85.8843C36.8927 86.2275 36.4525 86.3237 36.2153 86.0548L19.7193 67.3531C19.4821 67.0842 19.6325 66.6594 19.986 66.5997L43.304 62.6579Z" fill="#F3623F" stroke="#2E2E2E" stroke-width="1.5" stroke-linecap="round" stroke-linejoin="round"></path><line x1="135.462" y1="72.2982" x2="115.983" y2="80.1116" stroke="black" stroke-width="1.5" stroke-linecap="round"></line><line x1="84.6937" y1="79.7601" x2="65.3948" y2="71.5111" stroke="black" stroke-width="1.5" stroke-linecap="round"></line><line x1="93.3897" y1="70.4546" x2="85.5763" y2="50.9753" stroke="black" stroke-width="1.5" stroke-linecap="round"></line><line x1="106.119" y1="70.0235" x2="114.368" y2="50.7246" stroke="black" stroke-width="1.5" stroke-linecap="round"></line><rect x="156.859" y="107.405" width="17.6715" height="18.3093" transform="rotate(-9.06059 156.859 107.405)" fill="#BA5AE2" stroke="#2E2E2E" stroke-width="1.5"></rect></g></svg> 