<?xml version="1.0" encoding="UTF-8"?> <svg xmlns="http://www.w3.org/2000/svg" width="100" height="100" viewBox="0 0 100 100" fill="none"><rect width="100" height="100" fill="white"></rect><g clip-path="url(#clip0_140_1938)"><path fill-rule="evenodd" clip-rule="evenodd" d="M30.38 33.54H80.14C81.66 33.54 82.84 34.86 82.67 36.37L79.74 62.29C79.59 63.58 78.51 64.55 77.21 64.55H34.34C33.08 64.55 32.01 63.63 31.82 62.39L27.87 36.47C27.63 34.93 28.83 33.54 30.39 33.54H30.38Z" fill="#F3623F" stroke="#2D2D2D" stroke-width="1.5" stroke-linecap="round" stroke-linejoin="round"></path><path d="M10.75 22.88C15.18 22.88 18.98 26.06 19.75 30.43L26.04 70.78C26.33 72.64 27.93 74 29.81 74H63.23" stroke="#2D2D2D" stroke-width="1.5" stroke-linecap="round" stroke-linejoin="round"></path><path d="M74.15 79.6C77.1323 79.6 79.55 77.1823 79.55 74.2C79.55 71.2176 77.1323 68.8 74.15 68.8C71.1677 68.8 68.75 71.2176 68.75 74.2C68.75 77.1823 71.1677 79.6 74.15 79.6Z" fill="#F3623F" stroke="#2D2D2D" stroke-width="1.5" stroke-linecap="round" stroke-linejoin="round"></path><path d="M36.27 79.6C39.2523 79.6 41.67 77.1823 41.67 74.2C41.67 71.2176 39.2523 68.8 36.27 68.8C33.2877 68.8 30.87 71.2176 30.87 74.2C30.87 77.1823 33.2877 79.6 36.27 79.6Z" fill="#F3623F" stroke="#2D2D2D" stroke-width="1.5" stroke-linecap="round" stroke-linejoin="round"></path><path d="M47.19 33.38V26.18H77.21V33.38" stroke="#2D2D2D" stroke-width="1.5" stroke-linecap="round" stroke-linejoin="round"></path><path d="M36.99 33.38V20.4H67.02V26.18" stroke="#2D2D2D" stroke-width="1.5" stroke-linecap="round" stroke-linejoin="round"></path><path d="M37.01 44.69H74.87" stroke="#2D2D2D" stroke-width="1.5" stroke-linecap="round" stroke-linejoin="round"></path><path d="M39.17 53.39H72.72" stroke="#2D2D2D" stroke-width="1.5" stroke-linecap="round" stroke-linejoin="round"></path></g><defs><clipPath id="clip0_140_1938"><rect width="73.44" height="60.7" fill="white" transform="translate(10 19.65)"></rect></clipPath></defs></svg> 