<?xml version="1.0" encoding="UTF-8"?> <svg xmlns="http://www.w3.org/2000/svg" width="100" height="100" viewBox="0 0 100 100" fill="none"><rect width="100" height="100" fill="white"></rect><g clip-path="url(#clip0_140_1843)"><path d="M62.6905 77.6045C60.5424 77.6045 58.4127 77.8902 56.3476 78.4522C52.1896 79.5854 47.8104 79.5854 43.6616 78.4522C41.5965 77.8902 39.4576 77.6045 37.3187 77.6045H13.1915V25.4663H18.7415" stroke="#2D2D2D" stroke-width="1.5" stroke-linecap="round" stroke-linejoin="round"></path><path d="M81.2585 25.4663H86.8085V55.4833" stroke="#2D2D2D" stroke-width="1.5" stroke-linecap="round" stroke-linejoin="round"></path><path d="M49.9954 66.4103V27.0418C49.9954 23.4394 47.0728 20.528 43.4773 20.528H18.7415V71.6988H35.2167C40.2228 71.6988 45.2013 72.4266 50.0046 73.8639" stroke="#2D2D2D" stroke-width="1.5" stroke-linecap="round" stroke-linejoin="round"></path><path d="M49.9954 73.8639L53.7754 72.9979C57.5461 72.1318 61.409 71.6988 65.2812 71.6988H81.2492V37.0935" stroke="#2D2D2D" stroke-width="1.5" stroke-linecap="round" stroke-linejoin="round"></path><path d="M81.2585 40.4472V20.528H56.5227C52.9179 20.528 50.0046 23.4486 50.0046 27.0418" stroke="#2D2D2D" stroke-width="1.5" stroke-linecap="round" stroke-linejoin="round"></path><path d="M24.4484 28.9766H41.6702" stroke="#2D2D2D" stroke-width="1.5" stroke-linecap="round" stroke-linejoin="round"></path><path d="M24.4484 34.4401H41.6702" stroke="#2D2D2D" stroke-width="1.5" stroke-linecap="round" stroke-linejoin="round"></path><path d="M69.393 19.5053C69.393 17.3955 67.6875 15.691 65.5762 15.691C63.465 15.691 61.7594 17.3955 61.7594 19.5053V58.8831L65.6868 56.1006L69.393 58.8094V19.5053Z" fill="#F2C713" stroke="#2D2D2D" stroke-width="1.5"></path><path d="M24.4484 39.9036H36.1663" stroke="#2D2D2D" stroke-width="1.5" stroke-linecap="round" stroke-linejoin="round"></path></g><defs><clipPath id="clip0_140_1843"><rect width="75" height="65" fill="white" transform="translate(12.5 15)"></rect></clipPath></defs></svg> 