<?xml version="1.0" encoding="UTF-8"?> <svg xmlns="http://www.w3.org/2000/svg" width="100" height="100" viewBox="0 0 100 100" fill="none"><path d="M43.6842 32.2632V44.1053M90 32.2632V51.9474C90 54.1565 88.2091 55.9474 86 55.9474H63.6842" stroke="#2D2D2D" stroke-width="1.5" stroke-linecap="round"></path><path d="M74.2106 23.8421V23.3693C74.2106 19.8519 71.3826 17 67.8948 17C64.4069 17 61.579 19.8519 61.579 23.3693V25.4211" stroke="#2D2D2D" stroke-width="1.5" stroke-linecap="round" stroke-linejoin="round"></path><rect x="10" y="48.4889" width="45.8427" height="30.5618" rx="4" fill="#65DFBE" stroke="#2D2D2D" stroke-width="1.5"></rect><rect x="10" y="48.4889" width="45.8427" height="30.5618" rx="4" fill="#65DFBE" stroke="#2D2D2D" stroke-width="1.5"></rect><path d="M39.6629 48.4889V46.5178C39.6629 43.1387 36.8456 40.399 33.3708 40.399C29.896 40.399 27.0787 43.1387 27.0787 46.5178V48.4889" stroke="#2D2D2D" stroke-width="1.5" stroke-linecap="round" stroke-linejoin="round"></path><path d="M10 52.4889C10 50.2797 11.7909 48.4889 14 48.4889H51.8427C54.0518 48.4889 55.8427 50.2797 55.8427 52.4889V58.2642C55.8427 63.787 51.3655 68.2642 45.8427 68.2642H20C14.4772 68.2642 10 63.787 10 58.2642V52.4889Z" fill="#65DFBE" stroke="#2D2D2D" stroke-width="1.5"></path><rect x="31.0167" y="63.2057" width="4.9" height="9.16667" rx="2.45" fill="white" stroke="#2D2D2D" stroke-width="1.5"></rect><path d="M81.0113 61.3807V67.3158C81.0113 72.2864 76.9819 76.3158 72.0113 76.3158H64.8315" stroke="#2D2D2D" stroke-width="1.5" stroke-linecap="round"></path><path d="M69.0494 80.5336L64.8316 76.3158L69.0494 72.098" stroke="#2D2D2D" stroke-width="1.5" stroke-linecap="round"></path><path d="M18.0899 43.2184L18.0899 37.2832C18.0899 32.3127 22.1193 28.2832 27.0899 28.2832L34.2697 28.2832" stroke="#2D2D2D" stroke-width="1.5" stroke-linecap="round"></path><path d="M30.0518 24.0655L34.2696 28.2833L30.0518 32.501" stroke="#2D2D2D" stroke-width="1.5" stroke-linecap="round"></path><path d="M80.5263 25.4211H86C88.2091 25.4211 90 27.2119 90 29.4211V34.3684C90 39.8913 85.5228 44.3684 80 44.3684H53.6842C48.1614 44.3684 43.6842 39.8913 43.6842 34.3684V29.4211C43.6842 27.2119 45.4751 25.4211 47.6842 25.4211H67.8947" stroke="#2D2D2D" stroke-width="1.5" stroke-linecap="round"></path><rect x="65.4868" y="38.8026" width="4.81579" height="9.02632" rx="2.40789" fill="#65DFBE" stroke="#2D2D2D" stroke-width="1.5"></rect></svg> 