<?xml version="1.0" encoding="UTF-8"?> <svg xmlns="http://www.w3.org/2000/svg" width="209" height="158" viewBox="0 0 209 158" fill="none"><path d="M141.27 157.427C178.439 157.427 208.571 127.098 208.571 89.6844C208.571 52.271 178.439 21.9415 141.27 21.9415C104.1 21.9415 73.9677 52.271 73.9677 89.6844C73.9677 127.098 104.1 157.427 141.27 157.427Z" fill="#F3CE47"></path><path d="M31.5167 63.6559C31.5167 63.4033 31.7214 63.1986 31.974 63.1986H90.5118C90.7643 63.1986 90.9691 63.4033 90.9691 63.6559V105.179C90.9691 105.432 90.7643 105.637 90.5118 105.637H31.974C31.7214 105.637 31.5167 105.432 31.5167 105.179V63.6559Z" fill="#FDFAEC"></path><path d="M31.974 63.9486H90.5118V62.4486H31.974V63.9486ZM90.2191 63.6559V105.179H91.7191V63.6559H90.2191ZM90.5118 104.887H31.974V106.387H90.5118V104.887ZM32.2667 105.179V63.6559H30.7667V105.179H32.2667ZM31.974 104.887C32.1356 104.887 32.2667 105.018 32.2667 105.179H30.7667C30.7667 105.846 31.3072 106.387 31.974 106.387V104.887ZM90.2191 105.179C90.2191 105.018 90.3501 104.887 90.5118 104.887V106.387C91.1785 106.387 91.7191 105.846 91.7191 105.179H90.2191ZM90.5118 63.9486C90.3501 63.9486 90.2191 63.8176 90.2191 63.6559H91.7191C91.7191 62.9891 91.1786 62.4486 90.5118 62.4486V63.9486ZM31.974 62.4486C31.3072 62.4486 30.7667 62.9891 30.7667 63.6559H32.2667C32.2667 63.8176 32.1356 63.9486 31.974 63.9486V62.4486Z" fill="#2E2E2E"></path><rect x="61.0863" y="31.1648" width="90.971" height="22.8697" rx="0.457322" fill="#BA5AE2" stroke="#2E2E2E" stroke-width="1.5" stroke-linecap="round" stroke-linejoin="round"></rect><rect x="104.096" y="90.6517" width="47.9609" height="14.9848" rx="0.457322" fill="#F3623F" stroke="#2E2E2E" stroke-width="1.5" stroke-linecap="round" stroke-linejoin="round"></rect><path d="M152.057 63.1986L104.096 63.1986" stroke="#2D2D2D" stroke-width="1.5" stroke-linecap="round" stroke-linejoin="round"></path><path d="M152.057 70.954L104.096 70.954" stroke="#2D2D2D" stroke-width="1.5" stroke-linecap="round" stroke-linejoin="round"></path><path d="M152.057 78.6976L118.591 78.6977" stroke="#2D2D2D" stroke-width="1.5" stroke-linecap="round" stroke-linejoin="round"></path><path d="M24.2258 117.108H159.612C163.284 117.108 166.262 114.112 166.262 110.415V23.4231C166.262 19.7265 163.284 16.7298 159.612 16.7298H54.6275" stroke="#2D2D2D" stroke-width="1.5" stroke-linecap="round" stroke-linejoin="round"></path><path d="M8.18775 117.108H174.581V120.105C174.581 125.136 170.585 129.226 165.67 129.226H17.078C12.1627 129.226 8.16638 125.136 8.16638 120.105V117.108H8.18775Z" stroke="#2D2D2D" stroke-width="1.5" stroke-linecap="round" stroke-linejoin="round"></path><path fill-rule="evenodd" clip-rule="evenodd" d="M25.8077 49.7605C12.4096 49.7605 1.54828 38.8992 1.54828 25.5011C1.54828 12.103 12.4096 1.24173 25.8077 1.24173C39.2058 1.24173 50.0671 12.103 50.0671 25.5011C50.0671 38.8992 39.2058 49.7605 25.8077 49.7605ZM25.8138 36.663L25.8033 36.6755H25.8243L25.8138 36.663ZM25.8138 36.663L35.1263 25.6287C36.8396 23.6002 36.7239 20.5941 34.8635 18.7022C33.1818 16.9994 30.5541 16.6736 28.5151 17.9244L25.8138 19.5745L23.1126 17.9244C21.0735 16.6736 18.4353 16.9994 16.7641 18.7022C14.9037 20.5941 14.7881 23.6002 16.5013 25.6287L25.8138 36.663Z" fill="#F3623F"></path><path d="M25.8033 36.6755L25.2301 36.1918C25.0419 36.4148 25.0001 36.7268 25.1231 36.9915C25.2461 37.2562 25.5114 37.4255 25.8033 37.4255V36.6755ZM25.8243 36.6755V37.4255C26.1162 37.4255 26.3815 37.2562 26.5045 36.9915C26.6275 36.7268 26.5857 36.4148 26.3975 36.1918L25.8243 36.6755ZM35.1263 25.6287L34.5533 25.1448L34.5531 25.145L35.1263 25.6287ZM34.8635 18.7022L35.3983 18.1763L35.3972 18.1751L34.8635 18.7022ZM28.5151 17.9244L28.9061 18.5644L28.9072 18.5637L28.5151 17.9244ZM25.8138 19.5745L25.4228 20.2146C25.6629 20.3612 25.9648 20.3612 26.2048 20.2146L25.8138 19.5745ZM23.1126 17.9244L22.7204 18.5637L22.7216 18.5644L23.1126 17.9244ZM16.7641 18.7022L17.2989 19.228L17.2993 19.2275L16.7641 18.7022ZM16.5013 25.6287L17.0745 25.145L17.0743 25.1448L16.5013 25.6287ZM0.798279 25.5011C0.798279 39.3134 11.9954 50.5105 25.8077 50.5105V49.0105C12.8238 49.0105 2.29828 38.485 2.29828 25.5011H0.798279ZM25.8077 0.49173C11.9954 0.49173 0.798279 11.6888 0.798279 25.5011H2.29828C2.29828 12.5172 12.8238 1.99173 25.8077 1.99173V0.49173ZM50.8171 25.5011C50.8171 11.6888 39.62 0.49173 25.8077 0.49173V1.99173C38.7915 1.99173 49.3171 12.5172 49.3171 25.5011H50.8171ZM25.8077 50.5105C39.62 50.5105 50.8171 39.3134 50.8171 25.5011H49.3171C49.3171 38.485 38.7915 49.0105 25.8077 49.0105V50.5105ZM26.3765 37.1592L26.387 37.1468L25.2406 36.1793L25.2301 36.1918L26.3765 37.1592ZM25.8243 35.9255H25.8033V37.4255H25.8243V35.9255ZM25.2406 37.1468L25.2512 37.1592L26.3975 36.1918L26.387 36.1793L25.2406 37.1468ZM26.387 37.1468L35.6995 26.1124L34.5531 25.145L25.2407 36.1793L26.387 37.1468ZM35.6993 26.1126C37.6627 23.7879 37.5301 20.3442 35.3983 18.1763L34.3288 19.228C35.9178 20.844 36.0164 23.4124 34.5533 25.1448L35.6993 26.1126ZM35.3972 18.1751C33.4719 16.2258 30.461 15.8509 28.1229 17.2851L28.9072 18.5637C30.6473 17.4963 32.8917 17.773 34.3299 19.2292L35.3972 18.1751ZM28.1241 17.2843L25.4228 18.9345L26.2048 20.2146L28.9061 18.5644L28.1241 17.2843ZM26.2048 18.9345L23.5035 17.2843L22.7216 18.5644L25.4228 20.2146L26.2048 18.9345ZM23.5047 17.2851C21.1678 15.8516 18.1449 16.2246 16.2288 18.1768L17.2993 19.2275C18.7257 17.7743 20.9792 17.4956 22.7204 18.5637L23.5047 17.2851ZM16.2293 18.1763C14.0975 20.3442 13.9649 23.7879 15.9283 26.1126L17.0743 25.1448C15.6112 23.4124 15.7098 20.844 17.2989 19.228L16.2293 18.1763ZM15.9282 26.1124L25.2407 37.1468L26.387 36.1793L17.0745 25.145L15.9282 26.1124Z" fill="#2D2D2D"></path><path d="M70.0692 84.029C70.3574 84.2078 70.3574 84.6273 70.0692 84.8062L55.6124 93.7765C55.3077 93.9656 54.9139 93.7465 54.9139 93.3879L54.9139 75.4472C54.9139 75.0886 55.3077 74.8695 55.6124 75.0586L70.0692 84.029Z" fill="#65E5C4" stroke="#2E2E2E" stroke-width="1.5" stroke-linecap="round" stroke-linejoin="round"></path><path d="M19.2928 54.0345L19.2928 105.637" stroke="#2D2D2D" stroke-width="1.5" stroke-linecap="round" stroke-linejoin="round"></path></svg> 